<mxfile host="app.diagrams.net" modified="2023-03-23T21:43:00.345Z" agent="5.0 (Windows)" etag="GR2PRroWdWsgLKOBFeNh" version="20.8.23" type="github">
  <diagram name="Page-1" id="I9chWYneWWuKhsYVcU5S">
    <mxGraphModel dx="1434" dy="822" grid="1" gridSize="10" guides="1" tooltips="1" connect="1" arrows="1" fold="1" page="1" pageScale="1" pageWidth="1100" pageHeight="1700" math="0" shadow="0">
      <root>
        <mxCell id="0" />
        <mxCell id="1" parent="0" />
        <mxCell id="8UxtxWvcFUpUL8Jv6aYZ-2" style="edgeStyle=orthogonalEdgeStyle;rounded=0;orthogonalLoop=1;jettySize=auto;html=1;exitX=0.5;exitY=0;exitDx=0;exitDy=0;entryX=0;entryY=0.5;entryDx=0;entryDy=0;" edge="1" parent="1" source="8UxtxWvcFUpUL8Jv6aYZ-3" target="8UxtxWvcFUpUL8Jv6aYZ-1">
          <mxGeometry relative="1" as="geometry">
            <mxPoint x="130" y="180" as="targetPoint" />
            <mxPoint x="200" y="180" as="sourcePoint" />
          </mxGeometry>
        </mxCell>
        <mxCell id="8UxtxWvcFUpUL8Jv6aYZ-29" style="edgeStyle=orthogonalEdgeStyle;rounded=0;orthogonalLoop=1;jettySize=auto;html=1;fontFamily=Helvetica;fontSize=20;" edge="1" parent="1" source="8UxtxWvcFUpUL8Jv6aYZ-1" target="8UxtxWvcFUpUL8Jv6aYZ-11">
          <mxGeometry relative="1" as="geometry" />
        </mxCell>
        <mxCell id="8UxtxWvcFUpUL8Jv6aYZ-1" value="Character" style="swimlane;whiteSpace=wrap;html=1;" vertex="1" parent="1">
          <mxGeometry x="300" y="90" width="370" height="265" as="geometry" />
        </mxCell>
        <mxCell id="8UxtxWvcFUpUL8Jv6aYZ-4" value="&lt;div style=&quot;font-size: 19px;&quot; align=&quot;justify&quot;&gt;- Name : str&lt;/div&gt;&lt;div style=&quot;font-size: 19px;&quot; align=&quot;justify&quot;&gt;- Level : int&lt;/div&gt;&lt;div style=&quot;font-size: 19px;&quot; align=&quot;justify&quot;&gt;- Experience : int&lt;/div&gt;&lt;div style=&quot;font-size: 19px;&quot; align=&quot;justify&quot;&gt;- Skills : array&lt;br style=&quot;font-size: 19px;&quot;&gt;&lt;/div&gt;" style="text;html=1;align=center;verticalAlign=middle;resizable=0;points=[];autosize=1;strokeColor=none;fillColor=none;fontSize=19;" vertex="1" parent="8UxtxWvcFUpUL8Jv6aYZ-1">
          <mxGeometry x="10" y="30" width="170" height="100" as="geometry" />
        </mxCell>
        <mxCell id="8UxtxWvcFUpUL8Jv6aYZ-21" value="&lt;div style=&quot;font-size: 20px;&quot;&gt;&lt;font style=&quot;font-size: 20px;&quot;&gt;- gainExperince(exp:int):int&lt;/font&gt;&lt;/div&gt;&lt;div style=&quot;font-size: 20px;&quot;&gt;&lt;font style=&quot;font-size: 20px;&quot;&gt;- levelUp(): void&lt;br style=&quot;font-size: 20px;&quot;&gt;- learnSkill(skill:Skill):void&lt;/font&gt;&lt;/div&gt;" style="text;html=1;align=left;verticalAlign=middle;resizable=0;points=[];autosize=1;strokeColor=none;fillColor=none;fontSize=20;" vertex="1" parent="8UxtxWvcFUpUL8Jv6aYZ-1">
          <mxGeometry x="20" y="155" width="260" height="90" as="geometry" />
        </mxCell>
        <mxCell id="8UxtxWvcFUpUL8Jv6aYZ-6" style="edgeStyle=orthogonalEdgeStyle;rounded=0;orthogonalLoop=1;jettySize=auto;html=1;fontSize=23;entryX=0.5;entryY=0;entryDx=0;entryDy=0;" edge="1" parent="1" source="8UxtxWvcFUpUL8Jv6aYZ-3" target="8UxtxWvcFUpUL8Jv6aYZ-8">
          <mxGeometry relative="1" as="geometry">
            <mxPoint x="150" y="680" as="targetPoint" />
          </mxGeometry>
        </mxCell>
        <mxCell id="8UxtxWvcFUpUL8Jv6aYZ-3" value="&lt;div&gt;&lt;br&gt;&lt;/div&gt;&lt;div&gt;Skill&lt;/div&gt;&lt;div&gt;&lt;br&gt;&lt;/div&gt;" style="swimlane;whiteSpace=wrap;html=1;startSize=23;" vertex="1" parent="1">
          <mxGeometry x="20" y="410" width="240" height="200" as="geometry" />
        </mxCell>
        <mxCell id="8UxtxWvcFUpUL8Jv6aYZ-5" value="&lt;div style=&quot;font-size: 20px;&quot;&gt;- Name : str&lt;/div&gt;&lt;div style=&quot;font-size: 20px;&quot;&gt;- Description : str&lt;br style=&quot;font-size: 20px;&quot;&gt;&lt;/div&gt;&lt;div style=&quot;font-size: 20px;&quot;&gt;- levelReq: int&lt;/div&gt;&lt;div style=&quot;font-size: 20px;&quot;&gt;- skillType: str&lt;br style=&quot;font-size: 20px;&quot;&gt;&lt;/div&gt;" style="text;html=1;align=left;verticalAlign=middle;resizable=0;points=[];autosize=1;strokeColor=none;fillColor=none;fontSize=20;" vertex="1" parent="8UxtxWvcFUpUL8Jv6aYZ-3">
          <mxGeometry y="20" width="170" height="110" as="geometry" />
        </mxCell>
        <mxCell id="8UxtxWvcFUpUL8Jv6aYZ-25" value="&lt;div&gt;- getInfo() : str&lt;br&gt;&lt;/div&gt;" style="text;html=1;strokeColor=none;fillColor=none;align=left;verticalAlign=middle;whiteSpace=wrap;rounded=0;fontSize=18;fontFamily=Helvetica;" vertex="1" parent="8UxtxWvcFUpUL8Jv6aYZ-3">
          <mxGeometry y="160" width="240" height="30" as="geometry" />
        </mxCell>
        <mxCell id="8UxtxWvcFUpUL8Jv6aYZ-8" value="SkillType" style="swimlane;whiteSpace=wrap;html=1;startSize=23;" vertex="1" parent="1">
          <mxGeometry x="40" y="730" width="200" height="200" as="geometry" />
        </mxCell>
        <mxCell id="8UxtxWvcFUpUL8Jv6aYZ-9" value="&lt;div&gt;-Passive:void&lt;/div&gt;&lt;div&gt;-Active:void&lt;br&gt;&lt;/div&gt;" style="text;html=1;align=center;verticalAlign=middle;resizable=0;points=[];autosize=1;strokeColor=none;fillColor=none;fontSize=23;" vertex="1" parent="8UxtxWvcFUpUL8Jv6aYZ-8">
          <mxGeometry x="20" y="75" width="160" height="70" as="geometry" />
        </mxCell>
        <mxCell id="8UxtxWvcFUpUL8Jv6aYZ-11" value="battle" style="swimlane;whiteSpace=wrap;html=1;startSize=23;" vertex="1" parent="1">
          <mxGeometry x="325" y="580" width="320" height="200" as="geometry" />
        </mxCell>
        <mxCell id="8UxtxWvcFUpUL8Jv6aYZ-12" value="&lt;div style=&quot;font-size: 19px;&quot;&gt;- playerCharacter : object&lt;br style=&quot;font-size: 19px;&quot;&gt;&lt;/div&gt;&lt;div style=&quot;font-size: 19px;&quot;&gt;-enemy : object&lt;br style=&quot;font-size: 19px;&quot;&gt;&lt;/div&gt;" style="text;html=1;align=center;verticalAlign=middle;resizable=0;points=[];autosize=1;strokeColor=none;fillColor=none;fontSize=19;" vertex="1" parent="8UxtxWvcFUpUL8Jv6aYZ-11">
          <mxGeometry y="30" width="240" height="60" as="geometry" />
        </mxCell>
        <mxCell id="8UxtxWvcFUpUL8Jv6aYZ-26" value="" style="endArrow=none;html=1;rounded=0;fontSize=19;" edge="1" parent="8UxtxWvcFUpUL8Jv6aYZ-11">
          <mxGeometry width="50" height="50" relative="1" as="geometry">
            <mxPoint y="110" as="sourcePoint" />
            <mxPoint x="320" y="110" as="targetPoint" />
          </mxGeometry>
        </mxCell>
        <mxCell id="8UxtxWvcFUpUL8Jv6aYZ-27" value="&lt;div&gt;startBattle() : void&lt;/div&gt;&lt;div&gt;- endBattle():(winner: player || enemy)&lt;br&gt;&lt;/div&gt;" style="text;html=1;strokeColor=none;fillColor=none;align=left;verticalAlign=middle;whiteSpace=wrap;rounded=0;fontSize=18;fontFamily=Helvetica;" vertex="1" parent="8UxtxWvcFUpUL8Jv6aYZ-11">
          <mxGeometry y="140" width="320" height="30" as="geometry" />
        </mxCell>
        <mxCell id="8UxtxWvcFUpUL8Jv6aYZ-30" style="edgeStyle=orthogonalEdgeStyle;rounded=0;orthogonalLoop=1;jettySize=auto;html=1;entryX=0.75;entryY=0;entryDx=0;entryDy=0;fontFamily=Helvetica;fontSize=20;" edge="1" parent="1" source="8UxtxWvcFUpUL8Jv6aYZ-13" target="8UxtxWvcFUpUL8Jv6aYZ-11">
          <mxGeometry relative="1" as="geometry">
            <Array as="points">
              <mxPoint x="900" y="440" />
              <mxPoint x="565" y="440" />
            </Array>
          </mxGeometry>
        </mxCell>
        <mxCell id="8UxtxWvcFUpUL8Jv6aYZ-13" value="Enemy" style="swimlane;whiteSpace=wrap;html=1;" vertex="1" parent="1">
          <mxGeometry x="730" y="100" width="340" height="200" as="geometry" />
        </mxCell>
        <mxCell id="8UxtxWvcFUpUL8Jv6aYZ-14" value="&lt;div style=&quot;font-size: 18px;&quot;&gt;- Name : str&lt;/div&gt;&lt;div style=&quot;font-size: 18px;&quot;&gt;- Level : int&lt;/div&gt;- expReward: int" style="text;html=1;align=left;verticalAlign=middle;resizable=0;points=[];autosize=1;strokeColor=none;fillColor=none;fontSize=18;" vertex="1" parent="8UxtxWvcFUpUL8Jv6aYZ-13">
          <mxGeometry x="10" y="30" width="150" height="80" as="geometry" />
        </mxCell>
        <mxCell id="8UxtxWvcFUpUL8Jv6aYZ-22" value="" style="endArrow=none;html=1;rounded=0;fontSize=19;" edge="1" parent="8UxtxWvcFUpUL8Jv6aYZ-13">
          <mxGeometry width="50" height="50" relative="1" as="geometry">
            <mxPoint y="120" as="sourcePoint" />
            <mxPoint x="340" y="120" as="targetPoint" />
          </mxGeometry>
        </mxCell>
        <mxCell id="8UxtxWvcFUpUL8Jv6aYZ-23" value="- getExpreinceReward(): int" style="text;html=1;strokeColor=none;fillColor=none;align=center;verticalAlign=middle;whiteSpace=wrap;rounded=0;fontSize=18;fontFamily=Helvetica;" vertex="1" parent="8UxtxWvcFUpUL8Jv6aYZ-13">
          <mxGeometry y="140" width="240" height="30" as="geometry" />
        </mxCell>
        <mxCell id="8UxtxWvcFUpUL8Jv6aYZ-20" value="" style="endArrow=none;html=1;rounded=0;fontSize=19;entryX=1;entryY=0.5;entryDx=0;entryDy=0;exitX=0;exitY=0.5;exitDx=0;exitDy=0;" edge="1" parent="1" source="8UxtxWvcFUpUL8Jv6aYZ-1" target="8UxtxWvcFUpUL8Jv6aYZ-1">
          <mxGeometry width="50" height="50" relative="1" as="geometry">
            <mxPoint x="300" y="220" as="sourcePoint" />
            <mxPoint x="500" y="220" as="targetPoint" />
          </mxGeometry>
        </mxCell>
        <mxCell id="8UxtxWvcFUpUL8Jv6aYZ-24" value="" style="endArrow=none;html=1;rounded=0;fontSize=19;" edge="1" parent="1">
          <mxGeometry width="50" height="50" relative="1" as="geometry">
            <mxPoint x="20" y="550" as="sourcePoint" />
            <mxPoint x="260" y="550" as="targetPoint" />
          </mxGeometry>
        </mxCell>
      </root>
    </mxGraphModel>
  </diagram>
</mxfile>
